<?xml version="1.0" encoding="utf-8"?>
<!-- Generator: Adobe Illustrator 15.0.0, SVG Export Plug-In . SVG Version: 6.00 Build 0)  -->
<!DOCTYPE svg PUBLIC "-//W3C//DTD SVG 1.1//EN" "http://www.w3.org/Graphics/SVG/1.1/DTD/svg11.dtd">
<svg version="1.1" id="Layer_1" xmlns="http://www.w3.org/2000/svg" xmlns:xlink="http://www.w3.org/1999/xlink" x="0px" y="0px"
	 width="41.467px" height="41.872px" viewBox="0 0 41.467 41.872" enable-background="new 0 0 41.467 41.872" xml:space="preserve">
<path fill="#FFFFFF" d="M0,20.936C0,9.373,9.374,0,20.936,0c11.563,0,20.936,9.373,20.936,20.936
	c0,11.562-9.373,20.936-20.936,20.936C9.374,41.872,0,32.498,0,20.936 M23.213,36.098l12.885-12.885
	c1.258-1.258,1.258-3.296,0-4.555c-1.26-1.258-3.298-1.258-4.556,0l-7.386,7.386V8.052c0-1.78-1.439-3.221-3.221-3.221
	c-1.78,0-3.22,1.44-3.22,3.221v17.992l-7.386-7.386c-1.258-1.258-3.297-1.258-4.556,0c-0.627,0.63-0.942,1.454-0.942,2.278
	s0.315,1.65,0.944,2.277l12.883,12.885C19.917,37.355,21.956,37.355,23.213,36.098"/>
</svg>
