<?xml version="1.0" encoding="utf-8"?>
<!-- Generator: Adobe Illustrator 15.0.0, SVG Export Plug-In . SVG Version: 6.00 Build 0)  -->
<!DOCTYPE svg PUBLIC "-//W3C//DTD SVG 1.1//EN" "http://www.w3.org/Graphics/SVG/1.1/DTD/svg11.dtd">
<svg version="1.1" id="Layer_1" xmlns="http://www.w3.org/2000/svg" xmlns:xlink="http://www.w3.org/1999/xlink" x="0px" y="0px"
	 width="146.889px" height="65.25px" viewBox="0 0 146.889 65.25" enable-background="new 0 0 146.889 65.25" xml:space="preserve">
<path fill="#FFFFFF" d="M146.889,45.486c0-9.293-6.422-17.096-15.066-19.198C131.458,11.711,119.538,0,104.879,0
	c-8.588,0-16.23,4.021-21.166,10.276C80.941,6.697,76.611,4.39,71.74,4.39c-8.364,0-15.141,6.782-15.141,15.147
	c0,0.729,0.057,1.448,0.156,2.149c-1.271-0.23-2.577-0.357-3.915-0.357c-12.129,0.003-21.952,9.834-21.952,21.966
	c0,12.124,9.823,21.955,21.944,21.955h74.345C138.07,65.229,146.889,56.386,146.889,45.486"/>
<path fill="#FFFFFF" stroke="#FC9579" stroke-miterlimit="10" d="M76.889,32.024c0-6.159-4.257-11.331-9.986-12.725
	C66.66,9.638,58.76,1.875,49.043,1.875c-5.692,0-10.758,2.666-14.029,6.812c-1.837-2.372-4.707-3.902-7.936-3.902
	c-5.545,0-10.036,4.496-10.036,10.041c0,0.483,0.037,0.96,0.104,1.425c-0.843-0.153-1.708-0.237-2.595-0.237
	C6.511,16.015,0,22.531,0,30.572c0,8.036,6.511,14.553,14.545,14.553h49.278C71.044,45.11,76.889,39.249,76.889,32.024"/>
</svg>
