<?xml version="1.0" encoding="utf-8"?>
<!-- Generator: Adobe Illustrator 15.0.0, SVG Export Plug-In . SVG Version: 6.00 Build 0)  -->
<!DOCTYPE svg PUBLIC "-//W3C//DTD SVG 1.1//EN" "http://www.w3.org/Graphics/SVG/1.1/DTD/svg11.dtd">
<svg version="1.1" id="Layer_1" xmlns="http://www.w3.org/2000/svg" xmlns:xlink="http://www.w3.org/1999/xlink" x="0px" y="0px"
	 width="119.882px" height="95.764px" viewBox="0 0 119.882 95.764" enable-background="new 0 0 119.882 95.764"
	 xml:space="preserve">
<path fill="#FFFFFF" d="M119.882,60.173V43.728l-12.561-2.095c-0.512-1.552-1.131-3.05-1.858-4.492l7.401-10.354l-11.633-11.632
	l-10.339,7.385c-1.442-0.729-2.954-1.357-4.513-1.872l-2.089-12.53H67.846l-2.089,12.528c-1.563,0.517-3.07,1.142-4.518,1.872
	l-10.34-7.383L39.272,26.78l7.396,10.357c-0.727,1.441-1.348,2.942-1.855,4.495l-12.559,2.095v16.445l12.59,2.1
	c0.508,1.535,1.128,3.024,1.851,4.45l-7.423,10.391l11.627,11.633l10.413-7.435c1.419,0.712,2.898,1.327,4.427,1.835l2.106,12.617
	h16.445l2.106-12.623c1.528-0.505,3.008-1.117,4.427-1.834l10.413,7.435l11.627-11.628l-7.424-10.391
	c0.725-1.429,1.344-2.915,1.852-4.455L119.882,60.173z M76.067,62.903c-6.049,0-10.952-4.903-10.952-10.954
	c0-6.049,4.903-10.952,10.952-10.952c6.051,0,10.954,4.903,10.954,10.952C87.021,58,82.118,62.903,76.067,62.903"/>
<path fill="#FFFFFF" stroke="#FC9579" stroke-miterlimit="10" d="M46.366,22.657l-1.768-8.37l-6.618,0.285
	c-0.429-0.734-0.904-1.431-1.429-2.088l2.654-6.064l-7.173-4.671l-4.468,4.87c-0.812-0.215-1.649-0.372-2.498-0.465L22.657,0
	l-8.37,1.769l0.284,6.601c-0.74,0.431-1.439,0.913-2.099,1.439L6.415,7.161l-4.666,7.17l4.878,4.476
	c-0.214,0.811-0.37,1.643-0.46,2.487L0,23.709l1.769,8.373l6.634-0.287c0.423,0.727,0.899,1.417,1.42,2.066l-2.661,6.088l7.169,4.67
	l4.5-4.905c0.8,0.211,1.618,0.365,2.452,0.458l2.427,6.195l8.372-1.769l-0.288-6.65c0.725-0.422,1.412-0.892,2.058-1.409
	l6.098,2.665l4.669-7.17l-4.896-4.491c0.215-0.805,0.37-1.627,0.463-2.466L46.366,22.657z M24.359,28.758
	c-3.077,0.651-6.099-1.316-6.75-4.396c-0.651-3.079,1.317-6.101,4.396-6.752c3.08-0.651,6.103,1.317,6.753,4.398
	C29.409,25.085,27.44,28.107,24.359,28.758"/>
</svg>
