<?xml version="1.0" encoding="utf-8"?>
<!-- Generator: Adobe Illustrator 15.0.0, SVG Export Plug-In . SVG Version: 6.00 Build 0)  -->
<!DOCTYPE svg PUBLIC "-//W3C//DTD SVG 1.1//EN" "http://www.w3.org/Graphics/SVG/1.1/DTD/svg11.dtd">
<svg version="1.1" id="Layer_1" xmlns="http://www.w3.org/2000/svg" xmlns:xlink="http://www.w3.org/1999/xlink" x="0px" y="0px"
	 width="130.177px" height="67.827px" viewBox="0 0 130.177 67.827" enable-background="new 0 0 130.177 67.827"
	 xml:space="preserve">
<g>
	<path fill="#FFFFFF" d="M77.636,58.139V0H0.118v58.139h33.913v4.844H19.497v4.845h38.758v-4.845H43.722v-4.844H77.636z M9.809,9.69
		h58.137v38.758H9.809V9.69z"/>
	<path fill="#FFFFFF" stroke="#FC9579" stroke-miterlimit="10" d="M57.244,47.947v16.371c0,1.931,1.628,3.509,3.618,3.509h31.355
		c1.99,0,3.618-1.578,3.618-3.509V47.947c0-1.931-1.628-3.509-3.618-3.509H60.862C58.872,44.438,57.244,46.017,57.244,47.947
		 M59.054,60.811v-9.355h1.206v9.355H59.054z M93.424,56.133c0,1.293-1.079,2.339-2.412,2.339c-1.332,0-2.412-1.046-2.412-2.339
		s1.08-2.339,2.412-2.339C92.345,53.794,93.424,54.84,93.424,56.133 M86.188,46.777v18.711H62.068V46.777H86.188z"/>
	<path fill="#FFFFFF" d="M126.668,30.405h-23.389c-1.93,0-3.508,1.578-3.508,3.509v30.404c0,1.931,1.578,3.509,3.508,3.509h23.389
		c1.931,0,3.509-1.578,3.509-3.509V33.914C130.177,31.983,128.599,30.405,126.668,30.405 M114.974,66.658
		c-0.646,0-1.169-0.524-1.169-1.17s0.523-1.17,1.169-1.17s1.17,0.524,1.17,1.17S115.619,66.658,114.974,66.658 M125.499,63.149
		h-21.05V35.083h21.05V63.149z"/>
	<rect x="62" y="47" fill="#FC957925" width="24" height="18"/>
</g>
</svg>
